<svg width="18" height="16" viewBox="0 0 18 16" fill="none" xmlns="http://www.w3.org/2000/svg">
<path fill-rule="evenodd" clip-rule="evenodd" d="M10 12.5C11.933 12.5 13.5 10.933 13.5 9C13.5 7.067 11.933 5.5 10 5.5C8.067 5.5 6.5 7.067 6.5 9C6.5 10.933 8.067 12.5 10 12.5Z" stroke="white" stroke-width="1.4" stroke-linecap="round" stroke-linejoin="round"/>
<path d="M3.5 5.5H4.5" stroke="white" stroke-width="1.4" stroke-linecap="round" stroke-linejoin="round"/>
<path fill-rule="evenodd" clip-rule="evenodd" d="M15.5 3.5H13.5L12.5 1.5H7.5L6.5 3.5H2.5C1.948 3.5 1.5 3.948 1.5 4.5V13.5C1.5 14.052 1.948 14.5 2.5 14.5H15.5C16.052 14.5 16.5 14.052 16.5 13.5V4.5C16.5 3.948 16.052 3.5 15.5 3.5Z" stroke="white" stroke-width="1.4" stroke-linecap="round" stroke-linejoin="round"/>
</svg>
