<?xml version="1.0" encoding="UTF-8"?>
<svg width="20px" height="20px" viewBox="0 0 20 20" version="1.1" xmlns="http://www.w3.org/2000/svg" xmlns:xlink="http://www.w3.org/1999/xlink">
    <g id="Page-1" stroke="none" stroke-width="1" fill="none" fill-rule="evenodd">
        <g id="5.4-Profile" transform="translate(-19.000000, -457.000000)" fill="#F88735" fill-rule="nonzero">
            <g id="Group-2" transform="translate(19.000000, 457.000000)">
                <path d="M3.41991342,4.93506494 C3.8028024,4.93506494 4.11255411,4.62531323 4.11255411,4.24242424 C4.11255411,3.85953526 3.8028024,3.54978355 3.41991342,3.54978355 C3.03702444,3.54978355 2.72727273,3.85953526 2.72727273,4.24242424 C2.72727273,4.62531323 3.03702444,4.93506494 3.41991342,4.93506494 Z M3.41991342,6.83982684 C1.98505349,6.83982684 0.822510823,5.67728418 0.822510823,4.24242424 C0.822510823,2.80756431 1.98505349,1.64502165 3.41991342,1.64502165 C4.85477335,1.64502165 6.01731602,2.80756431 6.01731602,4.24242424 C6.01731602,5.67728418 4.85477335,6.83982684 3.41991342,6.83982684 Z M5.06493506,16.4502165 C5.59092054,16.4502165 6.01731602,16.8766119 6.01731602,17.4025974 C6.01731602,17.9285829 5.59092054,18.3549784 5.06493506,18.3549784 L2.5974026,18.3549784 C2.07141712,18.3549784 1.64502165,17.9285829 1.64502165,17.4025974 L1.64502165,15.0649351 L0.952380952,15.0649351 C0.426395476,15.0649351 -3.10862447e-14,14.6385396 -3.10862447e-14,14.1125541 L-3.10862447e-14,10 C-3.10862447e-14,8.56514007 1.16254266,7.4025974 2.5974026,7.4025974 L3.41991342,7.4025974 C3.9458989,7.4025974 4.37229437,7.82899288 4.37229437,8.35497835 C4.37229437,8.88096383 3.9458989,9.30735931 3.41991342,9.30735931 L2.5974026,9.30735931 C2.21451361,9.30735931 1.9047619,9.61711102 1.9047619,10 L1.9047619,13.1601732 L2.5974026,13.1601732 C3.12338807,13.1601732 3.54978355,13.5865686 3.54978355,14.1125541 L3.54978355,16.4502165 L5.06493506,16.4502165 Z M16.5800866,6.83982684 C15.1452266,6.83982684 13.982684,5.67728418 13.982684,4.24242424 C13.982684,2.80756431 15.1452266,1.64502165 16.5800866,1.64502165 C18.0149465,1.64502165 19.1774892,2.80756431 19.1774892,4.24242424 C19.1774892,5.67728418 18.0149465,6.83982684 16.5800866,6.83982684 Z M16.5800866,4.93506494 C16.9629756,4.93506494 17.2727273,4.62531323 17.2727273,4.24242424 C17.2727273,3.85953526 16.9629756,3.54978355 16.5800866,3.54978355 C16.1971976,3.54978355 15.8874459,3.85953526 15.8874459,4.24242424 C15.8874459,4.62531323 16.1971976,4.93506494 16.5800866,4.93506494 Z M18.3549784,17.4025974 C18.3549784,17.9285829 17.9285829,18.3549784 17.4025974,18.3549784 L14.9350649,18.3549784 C14.4090795,18.3549784 13.982684,17.9285829 13.982684,17.4025974 C13.982684,16.8766119 14.4090795,16.4502165 14.9350649,16.4502165 L16.4502165,16.4502165 L16.4502165,14.1125541 C16.4502165,13.5865686 16.8766119,13.1601732 17.4025974,13.1601732 L18.0952381,13.1601732 L18.0952381,10 C18.0952381,9.61711102 17.7854864,9.30735931 17.4025974,9.30735931 L16.5800866,9.30735931 C16.0541011,9.30735931 15.6277056,8.88096383 15.6277056,8.35497835 C15.6277056,7.82899288 16.0541011,7.4025974 16.5800866,7.4025974 L17.4025974,7.4025974 C18.8374573,7.4025974 20,8.56514007 20,10 L20,14.1125541 C20,14.6385396 19.5736045,15.0649351 19.047619,15.0649351 L18.3549784,15.0649351 L18.3549784,17.4025974 Z M10,4.93506494 C10.836915,4.93506494 11.5151515,4.25682838 11.5151515,3.41991342 C11.5151515,2.58299846 10.836915,1.9047619 10,1.9047619 C9.16308504,1.9047619 8.48484848,2.58299846 8.48484848,3.41991342 C8.48484848,4.25682838 9.16308504,4.93506494 10,4.93506494 Z M10,6.83982684 C8.11111409,6.83982684 6.58008658,5.30879933 6.58008658,3.41991342 C6.58008658,1.53102751 8.11111409,-8.21565038e-14 10,-8.21565038e-14 C11.8888859,-8.21565038e-14 13.4199134,1.53102751 13.4199134,3.41991342 C13.4199134,5.30879933 11.8888859,6.83982684 10,6.83982684 Z M11.5151515,14.9350649 C11.5151515,14.4090795 11.941547,13.982684 12.4675325,13.982684 L13.1601732,13.982684 L13.1601732,10 C13.1601732,9.61711102 12.8504215,9.30735931 12.4675325,9.30735931 L7.53246753,9.30735931 C7.14957855,9.30735931 6.83982684,9.61711102 6.83982684,10 L6.83982684,13.1601732 L7.53246753,13.1601732 C8.05845301,13.1601732 8.48484848,13.5865686 8.48484848,14.1125541 L8.48484848,18.0952381 L11.5151515,18.0952381 L11.5151515,14.9350649 Z M13.4199134,19.047619 C13.4199134,19.5736045 12.9935179,20 12.4675325,20 L7.53246753,20 C7.00648206,20 6.58008658,19.5736045 6.58008658,19.047619 L6.58008658,15.0649351 L5.88744589,15.0649351 C5.36146041,15.0649351 4.93506494,14.6385396 4.93506494,14.1125541 L4.93506494,10 C4.93506494,8.56514007 6.0976076,7.4025974 7.53246753,7.4025974 L12.4675325,7.4025974 C13.9023924,7.4025974 15.0649351,8.56514007 15.0649351,10 L15.0649351,14.9350649 C15.0649351,15.4610504 14.6385396,15.8874459 14.1125541,15.8874459 L13.4199134,15.8874459 L13.4199134,19.047619 Z" id="ic_affiliate"></path>
            </g>
        </g>
    </g>
</svg>