<?xml version="1.0" encoding="UTF-8"?>
<svg width="20px" height="20px" viewBox="0 0 20 20" version="1.1" xmlns="http://www.w3.org/2000/svg" xmlns:xlink="http://www.w3.org/1999/xlink">
    <g id="Page-1" stroke="none" stroke-width="1" fill="none" fill-rule="evenodd">
        <g id="5.2-Account" transform="translate(-19.000000, -331.000000)" fill="#F88735" fill-rule="nonzero">
            <g id="Invite-Friends" transform="translate(0.000000, 311.000000)">
                <g id="ic_code" transform="translate(19.000000, 20.000000)">
                    <path d="M2,2 L2,7.125 L7.125,7.125 L7.125,2 L2,2 Z M1,0 L8.125,0 C8.67728475,0 9.125,0.44771525 9.125,1 L9.125,8.125 C9.125,8.67728475 8.67728475,9.125 8.125,9.125 L1,9.125 C0.44771525,9.125 0,8.67728475 0,8.125 L0,1 C0,0.44771525 0.44771525,0 1,0 Z M2,12.6875 L2,17.8125 L7.125,17.8125 L7.125,12.6875 L2,12.6875 Z M1,10.6875 L8.125,10.6875 C8.67728475,10.6875 9.125,11.1352153 9.125,11.6875 L9.125,18.8125 C9.125,19.3647847 8.67728475,19.8125 8.125,19.8125 L1,19.8125 C0.44771525,19.8125 0,19.3647847 0,18.8125 L0,11.6875 C0,11.1352153 0.44771525,10.6875 1,10.6875 Z M12.6875,2 L12.6875,7.125 L17.8125,7.125 L17.8125,2 L12.6875,2 Z M11.6875,0 L18.8125,0 C19.3647847,0 19.8125,0.44771525 19.8125,1 L19.8125,8.125 C19.8125,8.67728475 19.3647847,9.125 18.8125,9.125 L11.6875,9.125 C11.1352153,9.125 10.6875,8.67728475 10.6875,8.125 L10.6875,1 C10.6875,0.44771525 11.1352153,0 11.6875,0 Z M18.8125,17.8125 C19.3647847,17.8125 19.8125,18.2602153 19.8125,18.8125 C19.8125,19.3647847 19.3647847,19.8125 18.8125,19.8125 L11.6875,19.8125 C11.1352153,19.8125 10.6875,19.3647847 10.6875,18.8125 C10.6875,18.2602153 11.1352153,17.8125 11.6875,17.8125 L18.8125,17.8125 Z M17.8125,12.6875 L14.0625,12.6875 C13.5102153,12.6875 13.0625,12.2397847 13.0625,11.6875 C13.0625,11.1352153 13.5102153,10.6875 14.0625,10.6875 L18.8125,10.6875 C19.3647847,10.6875 19.8125,11.1352153 19.8125,11.6875 L19.8125,15.25 C19.8125,15.8022847 19.3647847,16.25 18.8125,16.25 C18.2602153,16.25 17.8125,15.8022847 17.8125,15.25 L17.8125,12.6875 Z" id="qr-code"></path>
                </g>
            </g>
        </g>
    </g>
</svg>