<?xml version="1.0" encoding="UTF-8"?>
<svg width="23px" height="17px" viewBox="0 0 23 17" version="1.1" xmlns="http://www.w3.org/2000/svg" xmlns:xlink="http://www.w3.org/1999/xlink">
    <g id="Page-1" stroke="none" stroke-width="1" fill="none" fill-rule="evenodd">
        <g id="5.2-Account" transform="translate(-18.000000, -273.000000)" fill="#F88735" fill-rule="nonzero">
            <path d="M38.4,280.48 L20.04,280.48 L20.04,287.62 C20.04,287.80739 20.1926104,287.96 20.38,287.96 L38.06,287.96 C38.2473896,287.96 38.4,287.80739 38.4,287.62 L38.4,280.48 Z M20.04,278.44 L38.4,278.44 L38.4,275.38 C38.4,275.19261 38.2473896,275.04 38.06,275.04 L20.38,275.04 C20.1926104,275.04 20.04,275.19261 20.04,275.38 L20.04,278.44 Z M23.1,285.92 C22.5366696,285.92 22.08,285.46333 22.08,284.9 C22.08,284.33667 22.5366696,283.88 23.1,283.88 L27.18,283.88 C27.7433304,283.88 28.2,284.33667 28.2,284.9 C28.2,285.46333 27.7433304,285.92 27.18,285.92 L23.1,285.92 Z M33.98,285.92 C33.4166696,285.92 32.96,285.46333 32.96,284.9 C32.96,284.33667 33.4166696,283.88 33.98,283.88 L35.34,283.88 C35.9033304,283.88 36.36,284.33667 36.36,284.9 C36.36,285.46333 35.9033304,285.92 35.34,285.92 L33.98,285.92 Z M38.06,290 L20.38,290 C19.0659496,290 18,288.93405 18,287.62 L18,275.38 C18,274.06595 19.0659496,273 20.38,273 L38.06,273 C39.3740504,273 40.44,274.06595 40.44,275.38 L40.44,287.62 C40.44,288.93405 39.3740504,290 38.06,290 Z" id="ic_card"></path>
        </g>
    </g>
</svg>