<?xml version="1.0" encoding="UTF-8"?>
<svg width="22px" height="21px" viewBox="0 0 22 21" version="1.1" xmlns="http://www.w3.org/2000/svg" xmlns:xlink="http://www.w3.org/1999/xlink">
    <g id="Page-1" stroke="none" stroke-width="1" fill="none" fill-rule="evenodd">
        <g id="5.1-Menu---Login" transform="translate(-18.000000, -253.000000)" fill="#F88735" fill-rule="nonzero">
            <g id="home" transform="translate(18.000000, 253.000000)">
                <path d="M8.14285714,19 L8.14285714,14.5714286 C8.14285714,14.0191438 8.59057239,13.5714286 9.14285714,13.5714286 L12.7619048,13.5714286 C13.3141895,13.5714286 13.7619048,14.0191438 13.7619048,14.5714286 L13.7619048,19 L17.1904762,19 L17.1904762,10.952381 C17.1904762,10.4000962 17.6381914,9.95238095 18.1904762,9.95238095 C18.7427609,9.95238095 19.1904762,10.4000962 19.1904762,10.952381 L19.1904762,20 C19.1904762,20.5522847 18.7427609,21 18.1904762,21 L3.71428571,21 C3.16200096,21 2.71428571,20.5522847 2.71428571,20 L2.71428571,10.952381 C2.71428571,10.4000962 3.16200096,9.95238095 3.71428571,9.95238095 C4.26657046,9.95238095 4.71428571,10.4000962 4.71428571,10.952381 L4.71428571,19 L8.14285714,19 Z M11.7619048,19 L11.7619048,15.5714286 L10.1428571,15.5714286 L10.1428571,19 L11.7619048,19 Z M1.63323779,9.91681444 C1.20579298,10.266542 0.575770275,10.2035397 0.226042701,9.77609493 C-0.123684874,9.34865012 -0.0606826036,8.71862742 0.36676221,8.36889984 L10.3191432,0.226042701 C10.687509,-0.0753475669 11.2172529,-0.0753475669 11.5856187,0.226042701 L21.5379997,8.36889984 C21.9654445,8.71862742 22.0284468,9.34865012 21.6787192,9.77609493 C21.3289916,10.2035397 20.6989689,10.266542 20.2715241,9.91681444 L10.952381,2.29206095 L1.63323779,9.91681444 Z" id="Combined-Shape"></path>
            </g>
        </g>
    </g>
</svg>