<?xml version="1.0" encoding="UTF-8"?>
<svg width="20px" height="20px" viewBox="0 0 20 20" version="1.1" xmlns="http://www.w3.org/2000/svg" xmlns:xlink="http://www.w3.org/1999/xlink">
    <g id="Page-1" stroke="none" stroke-width="1" fill="none" fill-rule="evenodd">
        <g id="5.2-Account" transform="translate(-18.000000, -523.000000)">
            <g id="Group-2" transform="translate(0.000000, 387.000000)">
                <g id="Group">
                    <g id="Privacy-Policy" transform="translate(0.000000, 116.000000)">
                        <g id="ic_information" transform="translate(16.000000, 18.000000)">
                            <rect id="Background" fill-rule="nonzero" x="0" y="0" width="24" height="24"></rect>
                            <path d="M11,17 L13,17 L13,11 L11,11 L11,17 L11,17 Z M12,2 C6.5,2 2,6.5 2,12 C2,17.5 6.5,22 12,22 C17.5,22 22,17.5 22,12 C22,6.5 17.5,2 12,2 L12,2 Z M12,20 C7.6,20 4,16.4 4,12 C4,7.6 7.6,4 12,4 C16.4,4 20,7.6 20,12 C20,16.4 16.4,20 12,20 L12,20 Z M11,9 L13,9 L13,7 L11,7 L11,9 L11,9 Z" id="Policy" fill="#F88735"></path>
                        </g>
                    </g>
                </g>
            </g>
        </g>
    </g>
</svg>