<?xml version="1.0" encoding="UTF-8"?>
<svg width="36px" height="36px" viewBox="0 0 36 36" version="1.1" xmlns="http://www.w3.org/2000/svg" xmlns:xlink="http://www.w3.org/1999/xlink">
        <g id="Page-1" stroke="none" stroke-width="1" fill="none" fill-rule="evenodd">
        <g id="4.1-Homepage---Red/Black/Grey-Copy" transform="translate(-227.000000, -615.000000)">
            <g id="Group-3" transform="translate(227.000000, 615.000000)">
                <g mask="url(#mask-2)">
                    <g transform="translate(-1.800000, -1.700000)">
                        <g id="Bckgrnd">
                            <g id="Group">
                                <rect id="path-1" x="0" y="0" width="36" height="36" rx="6"></rect>
                                <path d="M29.7453125,0.7 C35.2375,0.7 38.8,4.2625 38.8,9.7546875 L38.8,29.6453125 C38.8,35.1375 35.2375,38.7 29.7453125,38.7 L9.8546875,38.7 C4.3625,38.7 0.8,35.1375 0.8,29.6453125 L0.8,9.7546875 C0.8,4.2625 4.3625,0.7 9.8546875,0.7 L29.7453125,0.7 Z" id="Background" fill="url(#linearGradient-3)"></path>
                                <path d="M38.8,32.2518075 C37.8416027,36.2369631 34.5796988,38.7 29.96697,38.7 L9.9240265,38.7 C4.38978092,38.7 0.8,35.1545455 0.8,29.6886364 L0.8,14.0702567 C3.84482942,13.1836329 7.13167049,12.7 10.5597169,12.7 C24.9282698,12.7 36.8160685,21.1966653 38.8,32.2518075 L38.8,32.2518075 Z" id="Yellow-Flare" fill="url(#radialGradient-4)"></path>
                            </g>
                        </g>
                        <g id="Icon" transform="translate(8.100000, 8.000000)">
                            <path d="M7.80093604,11.7 C7.80093604,9.5461704 9.54655226,7.799688 11.700468,7.799688 C13.8543838,7.799688 15.600936,9.5461704 15.600936,11.7 C15.600936,13.8538296 13.8543838,15.600312 11.700468,15.600312 C9.54655226,15.600312 7.80093604,13.8538296 7.80093604,11.7 M5.6924181,11.7 C5.6924181,15.01812 8.38221529,17.7078096 11.700468,17.7078096 C15.0187207,17.7078096 17.7085179,15.01812 17.7085179,11.7 C17.7085179,8.38188 15.0187207,5.6921904 11.700468,5.6921904 C8.38221529,5.6921904 5.6924181,8.38188 5.6924181,11.7 M16.5423089,5.4539784 C16.5419988,6.2293861 17.1703646,6.85822963 17.9458034,6.85853978 C18.7212421,6.85884992 19.3501108,6.23050922 19.350421,5.45510153 C19.3507312,4.67969383 18.7223654,4.05085023 17.9469267,4.05054 L17.9463651,4.05054 C17.1712952,4.05090123 16.5429802,4.67893974 16.5423089,5.4539784 M6.97347894,21.2235192 C5.83273011,21.1715712 5.21269891,20.9815632 4.80065523,20.8210392 C4.25438378,20.60838 3.86461778,20.3550984 3.45482059,19.9458792 C3.0450234,19.53666 2.79135725,19.147284 2.57962559,18.6010344 C2.41900156,18.1891944 2.22898596,17.5690008 2.17712949,16.4282976 C2.12040562,15.195024 2.10907956,14.8245552 2.10907956,11.7000936 C2.10907956,8.575632 2.12134165,8.2061928 2.17712949,6.9718896 C2.22907956,5.8311864 2.42049922,5.2122096 2.57962559,4.7991528 C2.79229329,4.2529032 3.04558502,3.8631528 3.45482059,3.453372 C3.86405616,3.0435912 4.25344774,2.7899352 4.80065523,2.578212 C5.2125117,2.4175944 5.83273011,2.2275864 6.97347894,2.175732 C8.20680187,2.1190104 8.57728549,2.1076848 11.700468,2.1076848 C14.8236505,2.1076848 15.1945086,2.1199464 16.4288612,2.175732 C17.56961,2.22768 18.1886115,2.419092 18.6016849,2.578212 C19.1479563,2.7899352 19.5377223,3.0441528 19.9475195,3.453372 C20.3573167,3.8625912 20.6100468,4.2529032 20.8227145,4.7991528 C20.9833385,5.2109928 21.1733541,5.8311864 21.2252106,6.9718896 C21.2819345,8.2061928 21.2932605,8.575632 21.2932605,11.7000936 C21.2932605,14.8245552 21.2819345,15.1939944 21.2252106,16.4282976 C21.1732605,17.5690008 20.9823089,18.1890072 20.8227145,18.6010344 C20.6100468,19.147284 20.3567551,19.5370344 19.9475195,19.9458792 C19.5382839,20.354724 19.1479563,20.60838 18.6016849,20.8210392 C18.1898284,20.9816568 17.56961,21.1716648 16.4288612,21.2235192 C15.1955382,21.2802408 14.8250546,21.2915664 11.700468,21.2915664 C8.57588144,21.2915664 8.20642746,21.2802408 6.97347894,21.2235192 M6.87659906,0.0708552 C5.63101404,0.1275768 4.7798752,0.3250728 4.03656786,0.6142968 C3.26677067,0.9129744 2.6151014,1.313676 1.96390016,1.9638216 C1.31269891,2.6139672 0.91301092,3.26664 0.614321373,4.0364064 C0.325085803,4.780152 0.127581903,5.6307888 0.0708580343,6.876324 C0.0131981279,8.1238248 0,8.5226544 0,11.7 C0,14.8773456 0.0131981279,15.2761752 0.0708580343,16.523676 C0.127581903,17.7693048 0.325085803,18.619848 0.614321373,19.3635936 C0.91301092,20.132892 1.31279251,20.7863136 1.96390016,21.4361784 C2.6150078,22.0860432 3.26677067,22.4861832 4.03656786,22.7857032 C4.78127925,23.0749272 5.63101404,23.2724232 6.87659906,23.3291448 C8.12480499,23.3858664 8.52299532,23.4 11.700468,23.4 C14.8779407,23.4 15.2767863,23.3868024 16.524337,23.3291448 C17.7700156,23.2724232 18.6205928,23.0749272 19.3643682,22.7857032 C20.1336973,22.4861832 20.7858346,22.086324 21.4370359,21.4361784 C22.0882371,20.7860328 22.4870827,20.132892 22.7866147,19.3635936 C23.0758502,18.619848 23.2742902,17.7692112 23.330078,16.523676 C23.3868019,15.2752392 23.4,14.8773456 23.4,11.7 C23.4,8.5226544 23.3868019,8.1238248 23.330078,6.876324 C23.2733541,5.6306952 23.0758502,4.779684 22.7866147,4.0364064 C22.4870827,3.267108 22.0872075,2.6149968 21.4370359,1.9638216 C20.7868643,1.3126464 20.1336973,0.9129744 19.3653042,0.6142968 C18.6205928,0.3250728 17.769922,0.1266408 16.525273,0.0708552 C15.2777223,0.0141336 14.8788768,0 11.7014041,0 C8.52393136,0 8.12480499,0.0131976 6.87659906,0.0708552" id="Shape" fill="#FFFFFF" fill-rule="nonzero"></path>
                        </g>
                    </g>
                </g>
            </g>
        </g>
    </g>
</svg>