<?xml version="1.0" encoding="UTF-8"?>
<svg width="21px" height="20px" viewBox="0 0 21 20" version="1.1" xmlns="http://www.w3.org/2000/svg" xmlns:xlink="http://www.w3.org/1999/xlink">
    <g id="Page-1" stroke="none" stroke-width="1" fill="none" fill-rule="evenodd">
        <g id="5.2-Account" transform="translate(-18.000000, -463.000000)" fill="#F88735" fill-rule="nonzero">
            <g id="Group-2" transform="translate(0.000000, 387.000000)">
                <g id="Group">
                    <g id="Feedback" transform="translate(0.000000, 56.000000)">
                        <g id="ic_like" transform="translate(18.000000, 20.000000)">
                            <path d="M17.9627521,5.96315872 C19.762671,6.01898634 20.7875983,7.09785715 20.7219828,8.81498046 L20.7219828,10.6668022 C20.7219828,10.8496507 20.7192915,10.951921 20.7054461,11.0903747 C20.6812622,11.3322132 20.6294882,11.5508148 20.5505379,11.7041565 L17.7708041,18.2828263 C17.3308858,19.3093023 16.3151539,20 15.1850195,20 L6.85182173,20 C5.28103503,20 4,18.718965 4,17.1481783 L4,7.88906959 C4,7.05709101 4.29752086,6.32208567 4.8914771,5.84265024 L9.9861434,0.747983932 C10.9084654,-0.174338081 12.3925845,-0.209654242 13.357733,0.667753446 L13.4488238,0.750563251 L13.5171105,0.852993323 C13.8480678,1.34942932 14.0554245,1.86782112 14.0554245,2.42619547 L14.0554245,2.70396873 L14.0326009,2.91639838 L13.3702617,5.96315872 L17.9627521,5.96315872 Z M10.8887657,7.96315872 L12.0554245,2.59652782 C12.0554245,2.54430337 12.0554245,2.51136164 12.0554245,2.42619547 C12.0554245,2.35611728 12.0125062,2.23345321 11.9308734,2.08880982 C11.7612402,1.99360177 11.5435173,2.01903721 11.400357,2.16219749 L6.2626533,7.29990116 L6.15554652,7.39279438 C6.06569207,7.46018522 6,7.61620387 6,7.88906959 L6,17.1481783 C6,17.6143955 6.38560453,18 6.85182173,18 L15.1850195,18 C15.5036634,18 15.8034452,17.7961484 15.9305129,17.4996902 L18.7349645,10.8677262 C18.7205406,10.8396786 18.7219828,10.7848747 18.7219828,10.6668022 L18.7226963,8.77721082 C18.7466303,8.14398094 18.6011099,7.98589825 17.946304,7.96315872 L10.8887657,7.96315872 Z M3,19 L0,19 L0,6 L3,6 L3,19 Z" id="Combined-Shape"></path>
                        </g>
                    </g>
                </g>
            </g>
        </g>
    </g>
</svg>