<?xml version="1.0" encoding="UTF-8"?>
<svg width="18px" height="20px" viewBox="0 0 18 20" version="1.1" xmlns="http://www.w3.org/2000/svg" xmlns:xlink="http://www.w3.org/1999/xlink">
    <g id="Page-1" stroke="none" stroke-width="1" fill="none" fill-rule="evenodd">
        <g id="5.1-Menu---Guest" transform="translate(-20.000000, -312.000000)" fill="#F88735" fill-rule="nonzero">
            <g id="Group-3">
                <g id="log-in" transform="translate(29.000000, 322.000000) scale(-1, 1) translate(-29.000000, -322.000000) translate(20.000000, 312.000000)">
                    <path d="M11.2602187,9.04761905 L8.67747779,6.45121281 C8.3075074,6.07928491 8.3075074,5.47627064 8.67747779,5.10434275 C9.04744817,4.73241485 9.64728867,4.73241485 10.0172591,5.10434275 L14.2172591,9.32656497 C14.5872294,9.69849287 14.5872294,10.3015071 14.2172591,10.673435 L10.0172591,14.8956573 C9.64728867,15.2675851 9.04744817,15.2675851 8.67747779,14.8956573 C8.3075074,14.5237294 8.3075074,13.9207151 8.67747779,13.5487872 L11.2602187,10.952381 L0.947368421,10.952381 C0.42415129,10.952381 -2.30926389e-14,10.5259855 -2.30926389e-14,10 C-2.30926389e-14,9.47401452 0.42415129,9.04761905 0.947368421,9.04761905 L11.2602187,9.04761905 Z M15.6,1.9047619 L7.54736842,1.9047619 C7.02415129,1.9047619 6.6,1.47836643 6.6,0.952380952 C6.6,0.426395476 7.02415129,0 7.54736842,0 L16.5473684,0 C17.0705856,0 17.4947368,0.426395476 17.4947368,0.952380952 L17.4947368,19.047619 C17.4947368,19.5736045 17.0705856,20 16.5473684,20 L7.54736842,20 C7.02415129,20 6.6,19.5736045 6.6,19.047619 C6.6,18.5216336 7.02415129,18.0952381 7.54736842,18.0952381 L15.6,18.0952381 L15.6,1.9047619 Z" id="Combined-Shape"></path>
                </g>
            </g>
        </g>
    </g>
</svg>