<?xml version="1.0" encoding="UTF-8"?>
<svg width="17px" height="22px" viewBox="0 0 17 22" version="1.1" xmlns="http://www.w3.org/2000/svg" xmlns:xlink="http://www.w3.org/1999/xlink">
    <g id="Page-1" stroke="none" stroke-width="1" fill="none" fill-rule="evenodd">
        <g id="5.2-Account" transform="translate(-21.000000, -210.000000)" fill="#F88735" fill-rule="nonzero">
            <g id="ic_location" transform="translate(21.000000, 210.000000)">
                <path d="M8.62403783,18.8786016 C9.44516996,18.0201453 10.2666321,17.0717299 11.0314337,16.0635823 C12.7267872,13.8287981 13.8905241,11.6356017 14.2887892,9.64427643 C14.3874363,9.15104084 14.4375,8.67543546 14.4375,8.21875 C14.4375,4.78422921 11.6532708,2 8.21875,2 C4.78422921,2 2,4.78422921 2,8.21875 C2,8.67543546 2.05006372,9.15104084 2.14871084,9.64427643 C2.54697589,11.6356017 3.7107128,13.8287981 5.40606627,16.0635823 C6.17086793,17.0717299 6.99233004,18.0201453 7.81346217,18.8786016 C7.95387521,19.025397 8.08924881,19.1642519 8.21875,19.2947394 C8.34825119,19.1642519 8.48362479,19.025397 8.62403783,18.8786016 Z M16.4375,8.21875 C16.4375,8.81152218 16.3736691,9.41791577 16.2499505,10.0365087 C15.7818029,12.377247 14.4866361,14.8181382 12.6248163,17.2723552 C11.8105164,18.3457506 10.9400839,19.3507044 10.0693215,20.2610469 C9.76404795,20.5801965 9.48003406,20.8652035 9.22427435,21.1126593 C9.06858344,21.2632953 8.95529703,21.3693726 8.89142279,21.4274401 C8.51000157,21.7741866 7.92749843,21.7741866 7.54607721,21.4274401 C7.48220297,21.3693726 7.36891656,21.2632953 7.21322565,21.1126593 C6.95746594,20.8652035 6.67345205,20.5801965 6.36817846,20.2610469 C5.49741606,19.3507044 4.62698363,18.3457506 3.81268373,17.2723552 C1.95086391,14.8181382 0.655697149,12.377247 0.18754949,10.0365087 C0.0638309043,9.41791577 0,8.81152218 0,8.21875 C0,3.67965971 3.67965971,8.8817842e-16 8.21875,0 C12.7578403,-8.8817842e-16 16.4375,3.67965971 16.4375,8.21875 Z M8.21875,12.5 C5.85428091,12.5 3.9375,10.5832191 3.9375,8.21875 C3.9375,5.85428091 5.85428091,3.9375 8.21875,3.9375 C10.5832191,3.9375 12.5,5.85428091 12.5,8.21875 C12.5,10.5832191 10.5832191,12.5 8.21875,12.5 Z M8.21875,10.5 C9.47864959,10.5 10.5,9.47864959 10.5,8.21875 C10.5,6.95885041 9.47864959,5.9375 8.21875,5.9375 C6.95885041,5.9375 5.9375,6.95885041 5.9375,8.21875 C5.9375,9.47864959 6.95885041,10.5 8.21875,10.5 Z" id="location"></path>
            </g>
        </g>
    </g>
</svg>