<?xml version="1.0" encoding="UTF-8"?>
<svg width="20px" height="18px" viewBox="0 0 20 18" version="1.1" xmlns="http://www.w3.org/2000/svg" xmlns:xlink="http://www.w3.org/1999/xlink">
    <g id="Page-1" stroke="none" stroke-width="1" fill="none" fill-rule="evenodd">
        <g id="5.4-Profile" transform="translate(-19.000000, -399.000000)" fill="#F88735" fill-rule="nonzero">
            <g id="Group" transform="translate(19.000000, 398.000000)">
                <path d="M17.8126974,5.55625 L17.8126974,3.1875 C17.8126974,3.08428475 17.7284126,3 17.6251974,3 L2.18769739,3 C2.08448214,3 2.00019739,3.08428475 2.00019739,3.1875 L2.00019739,5.55625 L9.90644739,9.77291667 L17.8126974,5.55625 Z M19.8126974,6.13554519 C19.812961,6.14878799 19.8129602,6.16201869 19.8126974,6.17522949 L19.8126974,16.25 C19.8126974,17.4577847 18.8329821,18.4375 17.6251974,18.4375 L2.18769739,18.4375 C0.979912638,18.4375 0.000197387903,17.4577847 0.000197387903,16.25 L0.000197387903,6.17522953 C-6.53995561e-05,6.16201869 -6.61920783e-05,6.14878799 0.000197387901,6.13554519 L0.000197387903,3.1875 C0.000197387903,1.97971525 0.979912638,1 2.18769739,1 L17.6251974,1 C18.8329821,1 19.8126974,1.97971525 19.8126974,3.1875 L19.8126974,6.1355452 Z M17.8126974,7.82291667 L10.3770356,11.7886029 C10.082918,11.9454657 9.7299768,11.9454657 9.43585915,11.7886029 L2.00019739,7.82291667 L2.00019739,16.25 C2.00019739,16.3532153 2.08448214,16.4375 2.18769739,16.4375 L17.6251974,16.4375 C17.7284126,16.4375 17.8126974,16.3532153 17.8126974,16.25 L17.8126974,7.82291667 Z" id="ic_mail"></path>
            </g>
        </g>
    </g>
</svg>