<?xml version="1.0" encoding="UTF-8"?>
<svg width="19px" height="20px" viewBox="0 0 19 20" version="1.1" xmlns="http://www.w3.org/2000/svg" xmlns:xlink="http://www.w3.org/1999/xlink">
    <g id="Page-1" stroke="none" stroke-width="1" fill="none" fill-rule="evenodd">
        <g id="5.1-Menu---Login" transform="translate(-20.000000, -373.000000)" fill="#F88735" fill-rule="nonzero">
            <path d="M26.2148739,390.395438 C22.4216365,390.032704 20,388.922721 20,387.101589 C20,386.396368 20.2606579,385.844882 20.7614505,385.234799 C20.882563,385.087255 21.299689,384.617166 21.3306736,384.581088 C21.9459488,383.864672 22.2015876,383.307869 22.2015876,382.396827 L22.2018231,379.962951 C22.2865564,376.153199 25.3547867,373.084969 29.1857156,373 C32.9372322,373 36.1698436,376.199513 36.1698436,379.923811 L36.1698436,382.396827 C36.1698436,383.307869 36.4254825,383.864672 37.0407576,384.581088 C37.0717422,384.617166 37.4888683,385.087255 37.6099808,385.234799 C38.1107734,385.844882 38.3714313,386.396368 38.3714313,387.101589 C38.3714313,388.919488 35.9583841,390.028761 32.1767439,390.393499 C32.3276645,390.677508 32.3310698,391.03112 32.1547593,391.327809 C31.533388,392.37343 30.4032613,393.010173 29.1869879,392.99993 C27.9707145,392.989687 26.8514724,392.334 26.2478,391.278062 C26.0868904,390.9966 26.0854009,390.667583 26.2148739,390.395438 Z M28.0187805,390.508367 C28.3003454,390.872005 28.7354996,391.091298 29.2030289,391.095236 C29.6800792,391.099253 30.1272036,390.878518 30.4143781,390.50629 C30.0156559,390.520077 29.6057959,390.526987 29.1857156,390.526987 C28.7872822,390.526987 28.3980429,390.520771 28.0187805,390.508367 Z M34.2650814,382.396827 L34.2650814,379.923811 C34.2650814,377.255897 31.8896242,374.904762 29.2068924,374.904527 C26.4159268,374.966601 24.1681886,377.214339 24.1063498,379.984128 L24.1063498,382.396827 C24.1063498,383.823086 23.6628358,384.789096 22.7756762,385.82209 C22.7235341,385.882804 22.3270443,386.329637 22.2337213,386.443326 C21.9864729,386.744533 21.9047622,386.917412 21.9047622,387.101589 C21.9047622,387.712789 24.8180384,388.622225 29.1857156,388.622225 C33.5533929,388.622225 36.4666691,387.712789 36.4666691,387.101589 C36.4666691,386.917412 36.3849584,386.744533 36.13771,386.443326 C36.044387,386.329637 35.6478971,385.882804 35.5957551,385.82209 C34.7085954,384.789096 34.2650814,383.823086 34.2650814,382.396827 Z" id="ic_notifications"></path>
        </g>
    </g>
</svg>