<?xml version="1.0" encoding="UTF-8"?>
<svg width="17px" height="21px" viewBox="0 0 17 21" version="1.1" xmlns="http://www.w3.org/2000/svg" xmlns:xlink="http://www.w3.org/1999/xlink">
    <g id="Page-1" stroke="none" stroke-width="1" fill="none" fill-rule="evenodd">
        <g id="5.2-Account" transform="translate(-21.000000, -151.000000)" fill="#F88735" fill-rule="nonzero">
            <path d="M24.3333333,159.333333 L24.3333333,156.166667 C24.3333333,153.313195 26.6465288,151 29.5,151 C30.8702852,151 32.1844471,151.544344 33.153385,152.513282 C34.122323,153.48222 34.6666667,154.796381 34.6666667,156.166667 L34.6666667,159.333333 L37,159.333333 C37.5522847,159.333333 38,159.781049 38,160.333333 L38,170.333333 C38,170.885618 37.5522847,171.333333 37,171.333333 L22,171.333333 C21.4477153,171.333333 21,170.885618 21,170.333333 L21,160.333333 C21,159.781049 21.4477153,159.333333 22,159.333333 L24.3333333,159.333333 Z M32.6666667,159.333333 L32.6666667,156.166667 C32.6666667,155.326814 32.3330367,154.52136 31.7391715,153.927495 C31.1453063,153.33363 30.3398522,153 29.5,153 C27.7510983,153 26.3333333,154.417765 26.3333333,156.166667 L26.3333333,159.333333 L32.6666667,159.333333 Z M23,169.333333 L36,169.333333 L36,161.333333 L23,161.333333 L23,169.333333 Z" id="ic_password"></path>
        </g>
    </g>
</svg>