<?xml version="1.0" encoding="UTF-8"?>
<svg width="20px" height="20px" viewBox="0 0 20 20" version="1.1" xmlns="http://www.w3.org/2000/svg" xmlns:xlink="http://www.w3.org/1999/xlink">
    <g id="Page-1" stroke="none" stroke-width="1" fill="none" fill-rule="evenodd">
        <g id="5.1-Menu---Login" transform="translate(-19.000000, -433.000000)" fill="#F88735" fill-rule="nonzero">
            <g id="Invite-Friends" transform="translate(19.000000, 433.000000)">
                <g id="ic_setting">
                    <path d="M17.4025974,7.4025974 C18.8374573,7.4025974 20,8.56514007 20,10 C20,11.4346496 18.8368453,12.5974026 17.4025974,12.5974026 L17.0640992,12.5974026 C16.9941702,12.7879209 16.9166706,12.9752019 16.8317898,13.1588592 L17.0709242,13.3979935 C18.0852331,14.4123024 18.0852331,16.0566154 17.0709242,17.0709242 C16.0566154,18.0852331 14.4123024,18.0852331 13.3979935,17.0709242 L13.1587444,16.831675 C12.9750294,16.916596 12.7878054,16.9941051 12.5974026,17.0640266 L12.5974026,17.4025974 C12.5974026,18.8374573 11.4348599,20 10,20 C8.56535044,20 7.4025974,18.8368453 7.4025974,17.4025974 L7.4025974,17.0640992 C7.21207914,16.9941702 7.02479809,16.9166706 6.84114082,16.8317898 L6.60200646,17.0709242 C5.58769761,18.0852331 3.94338464,18.0852331 2.92907579,17.0709242 C1.91476694,16.0566154 1.91476694,14.4123024 2.92907579,13.3979935 L3.16832498,13.1587444 C3.08340396,12.9750294 3.00589495,12.7878054 2.93597341,12.5974026 L2.5974026,12.5974026 C1.16254266,12.5974026 0,11.4348599 0,10 C0,8.56535044 1.16315468,7.4025974 2.5974026,7.4025974 L2.93597341,7.4025974 C3.00589495,7.21219459 3.08340396,7.02497063 3.16832498,6.84125564 L2.92907579,6.60200646 C1.91476694,5.58769761 1.91476694,3.94338464 2.92907579,2.92907579 C3.94338464,1.91476694 5.58769761,1.91476694 6.60200646,2.92907579 L6.84125564,3.16832498 C7.02497063,3.08340396 7.21219459,3.00589495 7.4025974,2.93597341 L7.4025974,2.5974026 C7.4025974,1.16254266 8.56514007,0 10,0 C11.4346496,0 12.5974026,1.16315468 12.5974026,2.5974026 L12.5974026,2.93597341 C12.7878054,3.00589495 12.9750294,3.08340396 13.1587444,3.16832498 L13.3979935,2.92907579 C14.4123024,1.91476694 16.0566154,1.91476694 17.0709242,2.92907579 C18.0852331,3.94338464 18.0852331,5.58769761 17.0709242,6.60200646 L16.831675,6.84125564 C16.916596,7.02497063 16.9941051,7.21219459 17.0640266,7.4025974 L17.4025974,7.4025974 Z M18.0952381,10 C18.0952381,9.61711102 17.7854864,9.30735931 17.4025974,9.30735931 L16.3645887,9.30735931 C15.9303039,9.30735931 15.5510197,9.01356639 15.4424494,8.59307172 C15.3104913,8.08199618 15.1091461,7.59664825 14.8434176,7.14597272 C14.6228349,6.77186435 14.6832802,6.29591036 14.9903745,5.98881605 L15.7240541,5.2551364 C15.9945072,4.98468334 15.9945072,4.54639891 15.7240541,4.27594585 C15.4536011,4.0054928 15.0153167,4.0054928 14.7448636,4.27594585 L14.0111839,5.00962551 C13.7040896,5.31671981 13.2281356,5.37716513 12.8540273,5.15658237 C12.4033518,4.89085387 11.9180038,4.68950866 11.4069283,4.55755063 C10.9864336,4.44898029 10.6926407,4.06969606 10.6926407,3.63541126 L10.6926407,2.5974026 C10.6926407,2.21497839 10.3825313,1.9047619 10,1.9047619 C9.61711102,1.9047619 9.30735931,2.21451361 9.30735931,2.5974026 L9.30735931,3.63541126 C9.30735931,4.06969606 9.01356639,4.44898029 8.59307172,4.55755063 C8.08199618,4.68950866 7.59664825,4.89085387 7.14597272,5.15658237 C6.77186435,5.37716513 6.29591036,5.31671981 5.98881605,5.00962551 L5.2551364,4.27594585 C4.98468334,4.0054928 4.54639891,4.0054928 4.27594585,4.27594585 C4.0054928,4.54639891 4.0054928,4.98468334 4.27594585,5.2551364 L5.00962551,5.98881605 C5.31671981,6.29591036 5.37716513,6.77186435 5.15658237,7.14597272 C4.89085387,7.59664825 4.68950866,8.08199618 4.55755063,8.59307172 C4.44898029,9.01356639 4.06969606,9.30735931 3.63541126,9.30735931 L2.5974026,9.30735931 C2.21497839,9.30735931 1.9047619,9.61746868 1.9047619,10 C1.9047619,10.382889 2.21451361,10.6926407 2.5974026,10.6926407 L3.63541126,10.6926407 C4.06969606,10.6926407 4.44898029,10.9864336 4.55755063,11.4069283 C4.68950866,11.9180038 4.89085387,12.4033518 5.15658237,12.8540273 C5.37716513,13.2281356 5.31671981,13.7040896 5.00962551,14.0111839 L4.27594585,14.7448636 C4.0054928,15.0153167 4.0054928,15.4536011 4.27594585,15.7240541 C4.54639891,15.9945072 4.98468334,15.9945072 5.2551364,15.7240541 L5.98881605,14.9903745 C6.29608305,14.6831075 6.77237097,14.6227864 7.14653763,14.843751 C7.59535085,15.1087982 8.08124979,15.3102986 8.59307172,15.4424494 C9.01356639,15.5510197 9.30735931,15.9303039 9.30735931,16.3645887 L9.30735931,17.4025974 C9.30735931,17.7850216 9.61746868,18.0952381 10,18.0952381 C10.382889,18.0952381 10.6926407,17.7854864 10.6926407,17.4025974 L10.6926407,16.3645887 C10.6926407,15.9303039 10.9864336,15.5510197 11.4069283,15.4424494 C11.9180038,15.3104913 12.4033518,15.1091461 12.8540273,14.8434176 C13.2281356,14.6228349 13.7040896,14.6832802 14.0111839,14.9903745 L14.7448636,15.7240541 C15.0153167,15.9945072 15.4536011,15.9945072 15.7240541,15.7240541 C15.9945072,15.4536011 15.9945072,15.0153167 15.7240541,14.7448636 L14.9903745,14.0111839 C14.6831075,13.7039169 14.6227864,13.227629 14.843751,12.8534624 C15.1087982,12.4046492 15.3102986,11.9187502 15.4424494,11.4069283 C15.5510197,10.9864336 15.9303039,10.6926407 16.3645887,10.6926407 L17.4025974,10.6926407 C17.7850216,10.6926407 18.0952381,10.3825313 18.0952381,10 Z M10,13.4199134 C8.11123397,13.4199134 6.58008658,11.888766 6.58008658,10 C6.58008658,8.11123397 8.11123397,6.58008658 10,6.58008658 C11.888766,6.58008658 13.4199134,8.11123397 13.4199134,10 C13.4199134,11.888766 11.888766,13.4199134 10,13.4199134 Z M10,11.5151515 C10.8367951,11.5151515 11.5151515,10.8367951 11.5151515,10 C11.5151515,9.16320492 10.8367951,8.48484848 10,8.48484848 C9.16320492,8.48484848 8.48484848,9.16320492 8.48484848,10 C8.48484848,10.8367951 9.16320492,11.5151515 10,11.5151515 Z" id="Combined-Shape"></path>
                </g>
            </g>
        </g>
    </g>
</svg>