<?xml version="1.0" encoding="UTF-8"?>
<svg width="36px" height="36px" viewBox="0 0 36 36" version="1.1" xmlns="http://www.w3.org/2000/svg" xmlns:xlink="http://www.w3.org/1999/xlink">
    <g id="Page-1" stroke="none" stroke-width="1" fill="none" fill-rule="evenodd">
        <g id="4.1-Homepage---Red/Black/Grey-Copy" transform="translate(-323.000000, -615.000000)">
            <g id="ic_twitter" transform="translate(323.000000, 615.000000)">
                <rect id="Rectangle" fill="#69ACE0" x="0" y="0" width="36" height="36" rx="6"></rect>
                <path d="M28.4293398,11.697546 C27.6435333,12.0460449 26.7990682,12.2816315 25.9126348,12.3875267 C26.8173737,11.8452449 27.5121644,10.9865056 27.8393008,9.96327921 C26.992691,10.4654348 26.0549185,10.8301034 25.0567921,11.0266362 C24.2574901,10.1749895 23.1186774,9.64285714 21.8584227,9.64285714 C19.4383711,9.64285714 17.4764601,11.6047726 17.4764601,14.0245928 C17.4764601,14.3680592 17.5152158,14.7024395 17.5899017,15.0231731 C13.9481999,14.8404517 10.7194622,13.0959731 8.55827291,10.4449135 C8.1810922,11.0920982 7.96503468,11.8447866 7.96503468,12.6478307 C7.96503468,14.1680201 8.73862712,15.5092257 9.91435789,16.2950322 C9.19607799,16.2722994 8.52043381,16.075157 7.92962949,15.7469482 C7.92932247,15.7652581 7.92925573,15.7835725 7.92925573,15.8020338 C7.92925573,17.925117 9.43966941,19.6961506 11.444234,20.0986671 C11.076513,20.1987556 10.6894053,20.2523195 10.2897944,20.2523195 C10.0074339,20.2523195 9.73293578,20.2248523 9.465379,20.1737357 C10.022994,21.9145567 11.6412207,23.1814546 13.5586627,23.2168554 C12.0589992,24.3920567 10.1696339,25.092565 8.11670255,25.092565 C7.76301109,25.0925605 7.41420525,25.0718122 7.07142857,25.0313746 C9.01061122,26.2746186 11.3138528,27 13.7883715,27 C21.8481976,27 26.2555628,20.323112 26.2555628,14.5326931 C26.2555628,14.3427234 26.2512956,14.1537503 26.2428993,13.9658452 C27.0989689,13.3480365 27.8418994,12.5762684 28.4293398,11.697546 Z" id="Path" fill="#FFFFFF" fill-rule="nonzero"></path>
            </g>
        </g>
    </g>
</svg>