<svg width="315" height="230" viewBox="0 0 315 230" fill="none" xmlns="http://www.w3.org/2000/svg">
<g clip-path="url(#clip0)">
<path d="M196.937 16.1973H132.58C131.441 16.1973 130.518 17.1223 130.518 18.2634V23.2778C130.518 24.4189 131.441 25.3439 132.58 25.3439H196.937C198.076 25.3439 198.999 24.4189 198.999 23.2778V18.2634C198.999 17.1223 198.076 16.1973 196.937 16.1973Z" fill="#FF6347"/>
<path d="M295.855 0.19043H124.21C123.071 0.19043 122.148 1.11545 122.148 2.25653V200.494C122.148 201.635 123.071 202.56 124.21 202.56H295.855C296.994 202.56 297.918 201.635 297.918 200.494V2.25653C297.918 1.11545 296.994 0.19043 295.855 0.19043Z" fill="#FAEBE8" stroke="#3F3D56" stroke-miterlimit="10"/>
<path d="M198.839 13.5293H134.482C133.343 13.5293 132.42 14.4543 132.42 15.5954V20.6098C132.42 21.7509 133.343 22.6759 134.482 22.6759H198.839C199.978 22.6759 200.902 21.7509 200.902 20.6098V15.5954C200.902 14.4543 199.978 13.5293 198.839 13.5293Z" stroke="#3F3D56" stroke-miterlimit="10"/>
<path d="M274.74 47.0671H141.521C140.382 47.0671 139.458 47.9922 139.458 49.1332V49.5744C139.458 50.7154 140.382 51.6405 141.521 51.6405H274.74C275.879 51.6405 276.802 50.7154 276.802 49.5744V49.1332C276.802 47.9922 275.879 47.0671 274.74 47.0671Z" fill="#F2F2F2"/>
<path d="M274.93 61.5493H141.711C140.572 61.5493 139.648 62.4743 139.648 63.6154V64.0565C139.648 65.1976 140.572 66.1226 141.711 66.1226H274.93C276.069 66.1226 276.993 65.1976 276.993 64.0565V63.6154C276.993 62.4743 276.069 61.5493 274.93 61.5493Z" fill="#F2F2F2"/>
<path d="M275.12 76.0315H141.901C140.762 76.0315 139.839 76.9565 139.839 78.0976V78.5387C139.839 79.6798 140.762 80.6048 141.901 80.6048H275.12C276.26 80.6048 277.183 79.6798 277.183 78.5387V78.0976C277.183 76.9565 276.26 76.0315 275.12 76.0315Z" fill="#F2F2F2"/>
<path d="M276.642 45.1616H143.423C142.284 45.1616 141.361 46.0866 141.361 47.2277V47.6688C141.361 48.8099 142.284 49.7349 143.423 49.7349H276.642C277.781 49.7349 278.705 48.8099 278.705 47.6688V47.2277C278.705 46.0866 277.781 45.1616 276.642 45.1616Z" stroke="#3F3D56" stroke-miterlimit="10"/>
<path d="M276.832 59.6438H143.613C142.474 59.6438 141.551 60.5688 141.551 61.7099V62.151C141.551 63.2921 142.474 64.2171 143.613 64.2171H276.832C277.972 64.2171 278.895 63.2921 278.895 62.151V61.7099C278.895 60.5688 277.972 59.6438 276.832 59.6438Z" stroke="#3F3D56" stroke-miterlimit="10"/>
<path d="M277.023 74.126H143.804C142.664 74.126 141.741 75.051 141.741 76.1921V76.6332C141.741 77.7743 142.664 78.6993 143.804 78.6993H277.023C278.162 78.6993 279.085 77.7743 279.085 76.6332V76.1921C279.085 75.051 278.162 74.126 277.023 74.126Z" stroke="#3F3D56" stroke-miterlimit="10"/>
<path d="M231.96 117.573H185.442C184.951 117.573 184.48 117.768 184.133 118.116C183.786 118.463 183.591 118.935 183.591 119.427V125.627C183.591 126.119 183.786 126.59 184.133 126.938C184.48 127.286 184.951 127.481 185.442 127.481H187.966V158.974C187.966 159.466 188.161 159.938 188.509 160.285C188.856 160.633 189.327 160.829 189.818 160.829H224.921C225.412 160.829 225.883 160.633 226.23 160.285C226.578 159.938 226.773 159.466 226.773 158.974V127.481H231.96C232.451 127.481 232.922 127.286 233.269 126.938C233.616 126.59 233.811 126.119 233.811 125.627V119.427C233.811 118.935 233.616 118.463 233.269 118.116C232.922 117.768 232.451 117.573 231.96 117.573Z" fill="#F2F2F2"/>
<path d="M191.771 125.576H230.577V155.705C230.577 156.659 230.199 157.575 229.525 158.25C228.851 158.925 227.937 159.304 226.984 159.304H195.364C194.411 159.304 193.497 158.925 192.823 158.25C192.149 157.575 191.771 156.659 191.771 155.705V125.576Z" stroke="#3F3D56" stroke-miterlimit="10"/>
<path d="M233.547 115.667H189.181C187.565 115.667 186.254 116.98 186.254 118.599V122.644C186.254 124.263 187.565 125.576 189.181 125.576H233.547C235.164 125.576 236.474 124.263 236.474 122.644V118.599C236.474 116.98 235.164 115.667 233.547 115.667Z" stroke="#3F3D56" stroke-miterlimit="10"/>
<path d="M213.647 117.001H204.326V159.304H213.647V117.001Z" fill="#FF6347"/>
<path d="M215.169 115.667H207.56V159.114H215.169V115.667Z" stroke="#3F3D56" stroke-miterlimit="10"/>
<path d="M207.88 105.841C210.474 110.295 209.783 115.539 209.783 115.539C209.783 115.539 204.887 113.56 202.293 109.105C199.7 104.651 198.848 100.309 200.391 99.4075C201.933 98.5061 205.287 101.386 207.88 105.841Z" fill="#FF6347"/>
<path d="M213.968 105.841C211.375 110.295 212.066 115.539 212.066 115.539C212.066 115.539 216.962 113.56 219.555 109.105C222.149 104.651 223.001 100.309 221.458 99.4075C219.915 98.5061 216.562 101.386 213.968 105.841Z" fill="#FF6347"/>
<path d="M209.022 105.841C211.615 110.295 210.924 115.539 210.924 115.539C210.924 115.539 206.028 113.56 203.435 109.105C200.841 104.651 199.989 100.309 201.532 99.4075C203.075 98.5061 206.428 101.386 209.022 105.841Z" stroke="#3F3D56" stroke-miterlimit="10"/>
<path d="M212.827 105.841C210.233 110.295 210.924 115.539 210.924 115.539C210.924 115.539 215.82 113.56 218.414 109.105C221.008 104.651 221.859 100.309 220.317 99.4075C218.774 98.5061 215.421 101.386 212.827 105.841Z" stroke="#3F3D56" stroke-miterlimit="10"/>
<path d="M58.6608 26.522C58.6608 26.522 66.3498 41.0023 65.1195 48.7045C63.8893 56.4068 62.659 63.1848 65.1195 66.8819C67.58 70.579 51.8944 66.2657 51.8944 66.2657V44.6993L58.6608 26.522Z" fill="#FF6584"/>
<path d="M75.1152 65.4957C75.1152 65.4957 56.5077 86.2918 50.6641 81.0543C44.8204 75.8167 39.4381 63.339 43.7439 59.3339C46.0691 57.1711 46.2413 53.0334 45.9092 49.6814C45.7356 47.9471 45.4229 46.2296 44.9742 44.5455C44.9742 44.5455 54.201 41.7727 54.5086 47.3183C54.5299 47.9701 54.7014 48.608 55.0099 49.1823C56.7722 52.3155 62.5052 50.7073 62.5052 50.7073L75.1152 65.4957Z" fill="#FBBEBE"/>
<path d="M61.275 51.6316L62.5053 50.7073C67.4192 50.4511 72.3345 51.1845 76.9606 52.8639C84.3421 55.6368 97.2597 58.1015 100.95 57.1772C104.641 56.2529 113.56 54.4044 113.56 54.4044C113.56 54.4044 123.402 50.3992 125.555 55.3287C127.708 60.2581 112.33 60.2581 112.33 60.2581C112.33 60.2581 101.412 64.7254 93.7227 64.1093C86.0337 63.4931 76.038 67.0361 71.4245 63.339C66.8111 59.6419 61.275 51.6316 61.275 51.6316Z" fill="#FBBEBE"/>
<path d="M24.6752 169.322H16.371L13.2954 175.484L17.2937 179.797C17.2937 179.797 24.9827 178.873 27.1357 176.408C29.2886 173.944 24.6752 169.322 24.6752 169.322Z" fill="#FBBEBE"/>
<path d="M23.401 169.322C23.401 169.322 26.8281 167.782 24.6752 165.933C22.5223 164.085 20.6769 161.62 17.2937 164.085C13.9106 166.549 -2.69772 179.181 0.377891 183.494C3.4535 187.808 4.37618 186.883 5.91399 185.959C7.45179 185.035 12.3728 181.338 16.3711 181.338C20.3694 181.338 18.8316 176.1 17.2937 174.56C15.7559 173.019 22.1267 169.322 23.401 169.322Z" fill="#3F3D56"/>
<path d="M55.4313 208.758L52.0481 214.612L55.4313 218.309H64.9657C64.9657 218.309 61.8901 212.147 63.1203 209.374C64.3505 206.601 55.4313 208.758 55.4313 208.758Z" fill="#FBBEBE"/>
<path d="M64.9657 213.071C64.9657 213.071 61.5825 216.768 59.4296 216.152C57.2766 215.536 53.534 212.041 53.534 212.041C53.534 212.041 48.0498 217.384 50.5103 219.849C52.9708 222.314 62.8127 226.935 65.5808 228.784C68.3488 230.632 77.5757 229.4 77.2681 227.243C76.9605 225.087 72.3471 222.622 70.1942 219.849C68.0413 217.076 64.9657 213.071 64.9657 213.071Z" fill="#3F3D56"/>
<path d="M81.2664 112.017C81.2664 112.017 88.0328 133.276 78.8059 158.231C78.8059 158.231 70.5018 194.894 67.4262 202.288C64.3506 209.682 64.3506 212.763 64.3506 212.763C64.3506 212.763 52.6633 213.071 53.586 210.606C53.586 210.606 57.5842 198.591 57.5842 193.969C57.5842 189.348 64.043 164.393 64.043 164.393L66.1959 111.093L81.2664 112.017Z" fill="#3F3D56"/>
<path opacity="0.1" d="M81.2664 112.017C81.2664 112.017 88.0328 133.276 78.8059 158.231C78.8059 158.231 70.5018 194.894 67.4262 202.288C64.3506 209.682 64.3506 212.763 64.3506 212.763C64.3506 212.763 52.6633 213.071 53.586 210.606C53.586 210.606 57.5842 198.591 57.5842 193.969C57.5842 189.348 64.043 164.393 64.043 164.393L66.1959 111.093L81.2664 112.017Z" fill="black"/>
<path d="M79.7287 113.558C79.7287 113.558 79.7287 123.417 73.2699 127.73C73.2699 127.73 78.1909 162.236 72.0397 168.706C65.8885 175.176 55.7389 172.403 55.7389 172.403C55.7389 172.403 38.8231 173.327 26.2131 178.257C26.2131 178.257 16.3711 175.484 24.3677 168.398C24.3677 168.398 34.2097 165.933 37.2853 163.777C40.3609 161.62 54.5087 157.307 58.1995 159.155C58.1995 159.155 57.8919 153.918 56.6617 150.221C55.5527 146.888 53.5861 136.665 53.5861 136.665C53.5861 136.665 44.9743 120.336 53.5861 111.709C62.1978 103.083 79.7287 113.558 79.7287 113.558Z" fill="#3F3D56"/>
<path opacity="0.1" d="M55.01 49.1823C53.6088 49.8878 52.0774 50.2963 50.5115 50.3821C48.9457 50.468 47.3789 50.2295 45.9092 49.6814C45.7356 47.9471 45.423 46.2296 44.9742 44.5455C44.9742 44.5455 54.2011 41.7727 54.5086 47.3183C54.5299 47.9701 54.7015 48.608 55.01 49.1823Z" fill="black"/>
<path d="M49.8953 49.4747C56.1801 49.4747 61.275 44.3711 61.275 38.0754C61.275 31.7797 56.1801 26.676 49.8953 26.676C43.6104 26.676 38.5155 31.7797 38.5155 38.0754C38.5155 44.3711 43.6104 49.4747 49.8953 49.4747Z" fill="#FBBEBE"/>
<path d="M49.2802 80.5921C49.2802 80.5921 62.1977 89.8349 56.3541 99.6938C50.5104 109.553 52.3558 115.098 52.3558 115.098C52.3558 115.098 63.428 115.098 67.1187 117.563C70.8094 120.028 82.4967 115.714 82.4967 115.714C82.4967 115.714 84.3421 103.391 81.8816 97.5371C79.4211 91.6834 78.1909 82.4407 79.1136 80.5921C80.0363 78.7436 82.4967 70.117 76.6531 65.1876L73.3261 63.3975C73.3261 63.3975 75.4228 72.2737 61.275 66.728C61.275 66.7281 58.1994 84.9054 49.2802 80.5921Z" fill="#FF6347"/>
<path d="M61.4351 50.9353L61.7547 51.2711L73.4114 63.499L73.7713 63.8751L73.7926 63.9456L74.0266 64.6758L74.4938 66.1519L72.6578 64.1122L61.3518 51.5729L60.8538 51.0214L61.4351 50.9353Z" fill="#FF6347"/>
<path d="M62.2513 67.6649C62.2513 67.6649 52.6632 59.3337 45.8969 61.4903C39.1306 63.647 49.1767 81.9771 51.2275 82.2088L52.0481 82.1324C52.0481 82.1324 39.4381 66.7279 46.512 62.1065C46.512 62.1065 55.4313 63.0308 62.1976 68.5764L62.2513 67.6649Z" fill="#FF6347"/>
<path d="M56.3541 65.8037L78.806 72.8898L116.021 75.0464C116.021 75.0464 126.786 75.3545 124.94 80.284C123.095 85.2134 113.253 81.5163 113.253 81.5163L81.2665 82.1325C81.2665 82.1325 54.8162 79.3597 52.6633 77.8192C50.5104 76.2788 53.8936 64.8794 56.3541 65.8037Z" fill="#FBBEBE"/>
<path d="M46.512 47.6263C46.512 47.6263 45.2818 45.1616 47.7423 42.3887C48.9949 40.9771 50.0881 37.9684 50.8596 35.3547C51.2145 34.1502 51.9956 33.1168 53.0566 32.4478C54.1177 31.7789 55.3857 31.5204 56.6233 31.7209C58.8253 32.0769 61.1472 32.1905 61.8901 31.2975C63.4279 29.4489 61.5825 19.59 49.5876 21.7467C37.5928 23.9033 29.9037 18.9738 29.9037 30.6813C29.9037 42.3887 37.2852 45.7777 32.0567 57.4852C26.8281 69.1926 16.6786 70.425 22.5223 78.1273C28.3659 85.8295 43.744 87.9862 44.6667 85.2134C45.5893 82.4405 40.9759 71.6574 44.0515 67.3441C47.1272 63.0308 52.3557 58.4094 50.8179 55.6366C49.2801 52.8638 46.512 47.6263 46.512 47.6263Z" fill="#FF6584"/>
<path d="M10.1036 229.81H130.327" stroke="#3F3D56" stroke-miterlimit="10"/>
<path d="M288.68 63.0485C289.833 63.4682 291.067 63.6141 292.285 63.4745C293.504 63.3349 294.673 62.9138 295.701 62.2443C296.729 61.5748 297.588 60.6753 298.21 59.6165C298.832 58.5578 299.2 57.3689 299.285 56.1434C299.37 54.918 299.17 53.6895 298.7 52.5548C298.23 51.4201 297.503 50.4103 296.577 49.6049C295.651 48.7995 294.551 48.2205 293.364 47.9136C292.177 47.6067 290.934 47.5803 289.735 47.8364L289.933 51.919L288.005 48.4202C286.112 49.3109 284.65 50.9178 283.94 52.8878C283.688 53.5779 283.535 54.3002 283.485 55.0334C283.363 56.7536 283.804 58.4667 284.742 59.913C285.68 61.3593 287.062 62.4601 288.68 63.0485Z" fill="#57B894"/>
<path d="M298.221 110.399C297.541 106.927 300.49 103.849 303.403 101.848C306.317 99.8477 309.721 97.8819 310.715 94.4866C312.143 89.6069 307.888 85.138 304.576 81.2842C302.119 78.4243 300.008 75.2827 298.289 71.9252C297.6 70.5789 296.967 69.1716 296.786 67.6696C296.525 65.5066 297.218 63.3543 297.917 61.2911C300.245 54.4179 302.735 47.6024 305.385 40.8445" stroke="#3F3D56" stroke-miterlimit="10"/>
<path d="M289.006 61.9975C290.159 62.4172 291.393 62.563 292.611 62.4235C293.83 62.2839 294.999 61.8628 296.027 61.1933C297.055 60.5238 297.914 59.6242 298.536 58.5655C299.158 57.5068 299.526 56.3179 299.611 55.0924C299.696 53.8669 299.496 52.6385 299.026 51.5038C298.556 50.3691 297.829 49.3593 296.903 48.5539C295.978 47.7485 294.877 47.1695 293.69 46.8626C292.503 46.5557 291.26 46.5293 290.061 46.7854L290.259 50.8679L288.331 47.3692C286.439 48.2599 284.977 49.8668 284.266 51.8368C284.014 52.5268 283.861 53.2492 283.811 53.9824C283.689 55.7026 284.13 57.4156 285.068 58.862C286.006 60.3083 287.388 61.4091 289.006 61.9975V61.9975Z" stroke="#3F3D56" stroke-miterlimit="10"/>
<path d="M297.253 39.4346C297.706 38.1845 298.465 37.0685 299.461 36.1895C300.457 35.3105 301.658 34.6967 302.953 34.4048L303.605 38.2859L304.813 34.2097C306.492 34.2346 308.118 34.7932 309.459 35.8047C310.8 36.8162 311.785 38.2284 312.272 39.8373C312.759 41.4462 312.724 43.1685 312.17 44.7558C311.616 46.343 310.574 47.7129 309.192 48.6677C307.811 49.6225 306.162 50.1128 304.484 50.0678C302.806 50.0228 301.186 49.4449 299.858 48.4174C298.529 47.3899 297.561 45.9661 297.093 44.3515C296.625 42.7369 296.681 41.015 297.253 39.4346Z" fill="#57B894"/>
<path d="M297.688 38.0329C298.14 36.7828 298.9 35.6669 299.896 34.7879C300.892 33.9089 302.092 33.2951 303.387 33.0032L304.039 36.8843L305.248 32.8081C306.926 32.833 308.553 33.3916 309.894 34.4031C311.235 35.4146 312.22 36.8268 312.707 38.4357C313.194 40.0446 313.158 41.767 312.605 43.3542C312.051 44.9414 311.008 46.3113 309.627 47.2661C308.245 48.2209 306.597 48.7112 304.919 48.6662C303.241 48.6212 301.621 48.0433 300.292 47.0158C298.964 45.9883 297.996 44.5645 297.527 42.9499C297.059 41.3353 297.116 39.6134 297.688 38.0329V38.0329Z" stroke="#3F3D56" stroke-miterlimit="10"/>
<path d="M303.186 81.3627C305.014 82.0269 307.022 81.9941 308.827 81.2706C310.632 80.5471 312.108 79.1836 312.974 77.4398C313.84 75.6961 314.035 73.6941 313.523 71.8154C313.01 69.9367 311.825 68.3127 310.194 67.253L309.265 70.3855L308.606 66.4586C308.6 66.4555 308.593 66.4529 308.586 66.4509C307.608 66.095 306.57 65.9355 305.531 65.9816C304.492 66.0277 303.472 66.2785 302.53 66.7196C301.588 67.1607 300.741 67.7834 300.039 68.5523C299.337 69.3211 298.793 70.221 298.438 71.2005C298.084 72.18 297.925 73.2199 297.972 74.2608C298.018 75.3017 298.269 76.3232 298.71 77.267C299.151 78.2107 299.773 79.0582 300.541 79.7609C301.309 80.4637 302.208 81.008 303.186 81.3627H303.186Z" fill="#57B894"/>
<path d="M303.563 79.9433C305.39 80.6074 307.398 80.5747 309.203 79.8512C311.009 79.1277 312.485 77.7641 313.351 76.0204C314.217 74.2766 314.412 72.2746 313.899 70.396C313.387 68.5173 312.202 66.8933 310.57 65.8336L309.642 68.966L308.983 65.0391C308.976 65.0361 308.97 65.0335 308.963 65.0315C307.985 64.6756 306.947 64.5161 305.908 64.5622C304.869 64.6083 303.849 64.8591 302.907 65.3001C301.964 65.7412 301.118 66.364 300.416 67.1328C299.714 67.9017 299.17 68.8016 298.815 69.7811C298.461 70.7606 298.302 71.8005 298.349 72.8414C298.395 73.8823 298.646 74.9038 299.087 75.8475C299.528 76.7913 300.15 77.6387 300.918 78.3415C301.686 79.0443 302.585 79.5886 303.563 79.9433H303.563Z" stroke="#3F3D56" stroke-miterlimit="10"/>
<path d="M294.943 94.5349C295.257 96.3262 296.177 97.9547 297.547 99.1475C298.918 100.34 300.656 101.025 302.471 101.086C304.285 101.147 306.066 100.581 307.514 99.4837C308.961 98.386 309.988 96.8231 310.422 95.0571C310.856 93.291 310.67 91.4292 309.896 89.784C309.123 88.1387 307.808 86.8099 306.172 86.0206C304.536 85.2313 302.679 85.0294 300.913 85.4487C299.146 85.8681 297.577 86.8832 296.469 88.3238L299.996 93.6428L295.176 90.8196C294.802 92.0215 294.722 93.2956 294.943 94.5349Z" fill="#57B894"/>
<path d="M295.269 93.4839C295.583 95.2752 296.503 96.9037 297.873 98.0965C299.244 99.2892 300.982 99.9736 302.797 100.035C304.612 100.096 306.392 99.5304 307.84 98.4327C309.287 97.335 310.314 95.7721 310.748 94.0061C311.182 92.24 310.996 90.3782 310.223 88.7329C309.449 87.0876 308.134 85.7589 306.498 84.9696C304.862 84.1803 303.005 83.9783 301.239 84.3977C299.472 84.817 297.903 85.8321 296.795 87.2728L300.323 92.5918L295.502 89.7686C295.128 90.9704 295.048 92.2446 295.269 93.4839V93.4839Z" stroke="#3F3D56" stroke-miterlimit="10"/>
</g>
</svg>
