<svg width="46" height="46" viewBox="0 0 46 46" fill="none" xmlns="http://www.w3.org/2000/svg">
<g filter="url(#filter0_d)">
<rect x="6" y="6" width="30" height="30" rx="6" fill="#69ACE0"/>
<path d="M29.6911 15.7479C29.0362 16.0383 28.3325 16.2346 27.5938 16.3229C28.3478 15.871 28.9268 15.1554 29.1994 14.3027C28.4939 14.7211 27.7124 15.025 26.8806 15.1888C26.2145 14.4791 25.2655 14.0356 24.2153 14.0356C22.1986 14.0356 20.5637 15.6706 20.5637 17.6871C20.5637 17.9733 20.596 18.252 20.6582 18.5192C17.6235 18.367 14.9329 16.9132 13.1319 14.704C12.8175 15.2433 12.6375 15.8706 12.6375 16.5398C12.6375 17.8066 13.2822 18.9243 14.2619 19.5791C13.6634 19.5602 13.1003 19.3959 12.608 19.1224C12.6077 19.1376 12.6077 19.1529 12.6077 19.1683C12.6077 20.9375 13.8664 22.4134 15.5368 22.7488C15.2304 22.8322 14.9078 22.8769 14.5748 22.8769C14.3395 22.8769 14.1107 22.854 13.8878 22.8114C14.3525 24.2621 15.701 25.3178 17.2989 25.3473C16.0491 26.3266 14.4747 26.9104 12.7639 26.9104C12.4691 26.9104 12.1785 26.8931 11.8928 26.8594C13.5088 27.8954 15.4282 28.4999 17.4903 28.4999C24.2068 28.4999 27.8796 22.9359 27.8796 18.1105C27.8796 17.9522 27.876 17.7947 27.869 17.6381C28.5824 17.1233 29.2015 16.4802 29.6911 15.7479Z" fill="white"/>
</g>
<defs>
<filter id="filter0_d" x="0" y="0" width="46" height="46" filterUnits="userSpaceOnUse" color-interpolation-filters="sRGB">
<feFlood flood-opacity="0" result="BackgroundImageFix"/>
<feColorMatrix in="SourceAlpha" type="matrix" values="0 0 0 0 0 0 0 0 0 0 0 0 0 0 0 0 0 0 127 0"/>
<feOffset dx="2" dy="2"/>
<feGaussianBlur stdDeviation="4"/>
<feColorMatrix type="matrix" values="0 0 0 0 0 0 0 0 0 0 0 0 0 0 0 0 0 0 0.153218 0"/>
<feBlend mode="normal" in2="BackgroundImageFix" result="effect1_dropShadow"/>
<feBlend mode="normal" in="SourceGraphic" in2="effect1_dropShadow" result="shape"/>
</filter>
</defs>
</svg>
