<?xml version="1.0" encoding="UTF-8"?>
<svg width="18px" height="20px" viewBox="0 0 18 20" version="1.1" xmlns="http://www.w3.org/2000/svg" xmlns:xlink="http://www.w3.org/1999/xlink">
    <g id="Page-1" stroke="none" stroke-width="1" fill="none" fill-rule="evenodd">
        <g id="5.1-Menu---Login" transform="translate(-20.000000, -313.000000)" fill="#F88735" fill-rule="nonzero">
            <path d="M32.7734892,325.107104 C32.2718126,324.863917 32.0622651,324.260087 32.3054515,323.75841 C32.548638,323.256734 33.1524688,323.047186 33.6541453,323.290372 C36.0693206,324.461123 37.6029271,326.909235 37.6025238,329.593212 C37.6024836,329.860885 37.4961328,330.117585 37.3068588,330.306859 C36.9282577,330.68546 36.2159968,331.203468 35.1498584,331.70518 C33.4247883,332.516977 31.3115646,333 28.801262,333 C26.2909594,333 24.1777357,332.516977 22.4526656,331.70518 C21.3865272,331.203468 20.6742663,330.68546 20.2956653,330.306859 C20.1064152,330.117609 20.0000664,329.860949 20.0000002,329.593309 C19.9993368,326.90965 21.5323479,324.461619 23.9469781,323.29047 C24.4486006,323.047172 25.0524779,323.256586 25.2957759,323.758208 C25.5390738,324.259831 25.3296605,324.863708 24.828038,325.107006 C23.2479183,325.873399 22.1982621,327.408082 22.0398098,329.134998 C22.0471158,329.140358 22.0545438,329.145785 22.0620939,329.151276 C22.3979686,329.395548 22.8139054,329.643869 23.312319,329.878416 C24.7713972,330.565041 26.5915331,330.981073 28.801262,330.981073 C31.010991,330.981073 32.8311268,330.565041 34.2902051,329.878416 C34.7886186,329.643869 35.2045554,329.395548 35.5404302,329.151276 C35.547963,329.145797 35.5553743,329.140383 35.5626641,329.135034 C35.4040047,327.407941 34.3539626,325.873235 32.7734892,325.107104 Z M31.9873819,318.205047 C31.9873819,316.445402 30.5609074,315.018927 28.801262,315.018927 C27.0416166,315.018927 25.6151421,316.445402 25.6151421,318.205047 C25.6151421,320.251792 27.2915562,322.589905 28.801262,322.589905 C30.3109678,322.589905 31.9873819,320.251792 31.9873819,318.205047 Z M34.0063093,318.205047 C34.0063093,321.249928 31.5979933,324.608833 28.801262,324.608833 C26.0045307,324.608833 23.5962147,321.249928 23.5962147,318.205047 C23.5962147,315.330379 25.9265938,313 28.801262,313 C31.6759303,313 34.0063093,315.330379 34.0063093,318.205047 Z" id="ic_profile"></path>
        </g>
    </g>
</svg>